<svg xmlns="http://www.w3.org/2000/svg" xml:space="preserve" id="Laag_1" x="0" y="0" viewBox="0 0 545.15 163.57"><style>.st4{fill:#1a1a1a}.st5{opacity:.8}.st5,.st6,.st7{fill:#ff7300}.st6{opacity:.7}.st7{opacity:.6}</style><path d="M196.6 113.77v2.52h-7.94v-2.52zm-5.98-3.31h3.26v12.97c0 .44.07.77.2 1s.31.39.53.47.47.13.74.13c.2 0 .39-.02.56-.04.17-.03.3-.06.39-.08l.55 2.55c-.17.06-.42.13-.74.2s-.71.11-1.17.13c-.82.02-1.55-.1-2.2-.37s-1.17-.7-1.55-1.27c-.38-.58-.57-1.3-.56-2.16v-13.53zm14.2 17.4c-1.39 0-2.58-.29-3.59-.87-1-.58-1.78-1.4-2.32-2.46s-.81-2.32-.81-3.77q0-2.13.81-3.75t2.28-2.52 3.45-.9c.85 0 1.66.14 2.42.41s1.43.69 2.02 1.26c.58.57 1.04 1.29 1.38 2.17s.5 1.92.5 3.13v1h-11.33v-2.2h8.2c-.01-.62-.14-1.18-.4-1.67s-.63-.87-1.1-1.16c-.47-.28-1.02-.42-1.64-.42-.67 0-1.25.16-1.75.48s-.9.74-1.17 1.26c-.28.52-.42 1.09-.43 1.7v1.92c0 .8.15 1.49.44 2.06s.7 1.01 1.23 1.31 1.15.45 1.85.45c.47 0 .9-.07 1.29-.2.38-.13.72-.33 1-.6.28-.26.49-.59.64-.98l3.04.34c-.19.8-.56 1.5-1.09 2.1-.54.6-1.22 1.06-2.06 1.39-.83.36-1.78.52-2.86.52m15 0c-1.38 0-2.56-.3-3.55-.91a6 6 0 0 1-2.28-2.51c-.53-1.07-.8-2.3-.8-3.7q0-2.1.81-3.72c.54-1.08 1.3-1.92 2.29-2.52s2.15-.9 3.5-.9c1.12 0 2.12.21 2.98.62q1.305.615 2.07 1.74c.52.75.81 1.62.88 2.61h-3.11c-.13-.67-.42-1.22-.9-1.67-.47-.45-1.1-.67-1.88-.67-.67 0-1.25.18-1.75.53-.5.36-.9.87-1.17 1.53s-.42 1.46-.42 2.39c0 .94.14 1.75.41 2.42.28.68.66 1.19 1.16 1.56q.75.54 1.77.54.72 0 1.29-.27c.38-.18.7-.45.96-.8s.43-.77.53-1.27h3.11c-.08.98-.37 1.84-.86 2.6-.5.75-1.18 1.34-2.03 1.76-.84.43-1.85.64-3.01.64m11.94-8.37v8.1h-3.26v-18.42h3.18v6.95h.16c.32-.78.83-1.4 1.51-1.85s1.55-.68 2.6-.68c.96 0 1.8.2 2.51.6s1.27.99 1.66 1.76.59 1.72.59 2.83v8.8h-3.26v-8.29c0-.93-.24-1.65-.72-2.17s-1.14-.78-2-.78c-.58 0-1.09.12-1.54.37s-.81.61-1.06 1.07c-.24.48-.37 1.05-.37 1.71m15.61 0v8.1h-3.26v-13.82h3.11v2.35h.16c.32-.77.83-1.39 1.52-1.84.7-.46 1.56-.68 2.6-.68.95 0 1.79.2 2.5.61s1.26 1 1.66 1.77c.39.77.59 1.71.58 2.82v8.8h-3.26v-8.29c0-.92-.24-1.65-.72-2.17s-1.13-.78-1.97-.78c-.57 0-1.07.12-1.52.37-.44.25-.79.61-1.03 1.07-.25.46-.37 1.03-.37 1.69m13.84-7.68c-.52 0-.96-.17-1.33-.52s-.55-.76-.55-1.25.19-.9.56-1.25c.37-.34.82-.52 1.33-.52s.96.17 1.33.52.55.76.55 1.25-.18.9-.55 1.25-.82.52-1.34.52m-1.63 15.78v-13.82h3.26v13.82zm17.48-10.17-2.97.32c-.08-.3-.23-.58-.44-.85-.21-.26-.48-.48-.83-.64s-.77-.24-1.28-.24c-.68 0-1.25.15-1.7.44-.46.29-.68.68-.68 1.14-.01.4.14.73.45.98.3.25.81.46 1.51.62l2.36.5c1.31.28 2.28.73 2.92 1.34s.96 1.41.97 2.4c-.01.87-.26 1.64-.76 2.3s-1.2 1.18-2.08 1.55c-.89.37-1.91.56-3.06.56-1.69 0-3.05-.36-4.08-1.07s-1.65-1.7-1.84-2.97l3.18-.31c.14.62.45 1.09.92 1.41q.705.48 1.83.48c.77 0 1.4-.16 1.87-.48s.71-.71.71-1.18c0-.4-.15-.72-.45-.98s-.77-.46-1.41-.59l-2.36-.49c-1.33-.28-2.31-.74-2.94-1.4-.64-.66-.95-1.49-.94-2.5-.01-.85.23-1.59.7-2.22s1.13-1.11 1.97-1.46c.84-.34 1.82-.52 2.92-.52 1.62 0 2.89.34 3.83 1.03s1.46 1.66 1.68 2.83m8.99 10.44c-1.38 0-2.56-.3-3.55-.91a6 6 0 0 1-2.28-2.51c-.53-1.07-.8-2.3-.8-3.7q0-2.1.81-3.72c.54-1.08 1.3-1.92 2.29-2.52s2.16-.9 3.5-.9c1.12 0 2.12.21 2.98.62s1.56.99 2.07 1.74.81 1.62.88 2.61h-3.11c-.13-.67-.42-1.22-.9-1.67s-1.1-.67-1.88-.67c-.67 0-1.25.18-1.75.53-.5.36-.9.87-1.17 1.53s-.42 1.46-.42 2.39c0 .94.14 1.75.41 2.42.28.68.66 1.19 1.16 1.56q.75.54 1.77.54.72 0 1.29-.27c.38-.18.7-.45.96-.8s.44-.77.53-1.27h3.11c-.08.98-.37 1.84-.86 2.6a5.05 5.05 0 0 1-2.03 1.76c-.84.43-1.85.64-3.01.64m11.94-8.37v8.1h-3.26v-18.42h3.19v6.95h.16c.32-.78.83-1.4 1.51-1.85s1.55-.68 2.6-.68c.96 0 1.8.2 2.51.6s1.27.99 1.66 1.76.59 1.72.59 2.83v8.8h-3.26v-8.29c0-.93-.24-1.65-.71-2.17-.48-.52-1.14-.78-2-.78-.58 0-1.09.12-1.54.37s-.81.61-1.06 1.07q-.39.72-.39 1.71m16.98 13.28v-19h3.2v2.28h.19c.17-.34.4-.69.71-1.07s.72-.71 1.24-.98 1.19-.41 2-.41c1.07 0 2.03.27 2.89.81s1.54 1.34 2.05 2.4.76 2.36.76 3.89q0 2.28-.75 3.87c-.5 1.06-1.17 1.87-2.03 2.43q-1.29.84-2.91.84c-.79 0-1.45-.13-1.97-.4-.52-.26-.94-.58-1.25-.96-.32-.37-.56-.73-.73-1.07h-.14v7.36h-3.26zm3.19-12.09c0 .89.13 1.68.38 2.35.26.67.62 1.2 1.11 1.57.48.38 1.07.56 1.76.56.72 0 1.32-.19 1.81-.58s.85-.92 1.1-1.59.37-1.44.37-2.31c0-.86-.12-1.62-.37-2.29s-.61-1.19-1.1-1.57-1.09-.57-1.82-.57c-.7 0-1.29.18-1.77.55-.49.37-.85.88-1.1 1.54-.25.67-.37 1.45-.37 2.34m18.82 7.18c-1.39 0-2.58-.29-3.59-.87-1-.58-1.78-1.4-2.32-2.46s-.81-2.32-.81-3.77q0-2.13.81-3.75t2.28-2.52 3.45-.9c.85 0 1.66.14 2.42.41s1.43.69 2.02 1.26c.58.57 1.05 1.29 1.38 2.17s.5 1.92.5 3.13v1H331.8v-2.2h8.2c-.01-.62-.14-1.18-.4-1.67s-.63-.87-1.1-1.16c-.47-.28-1.02-.42-1.64-.42-.67 0-1.25.16-1.75.48s-.9.74-1.17 1.26c-.28.52-.42 1.09-.43 1.7v1.92c0 .8.15 1.49.44 2.06s.7 1.01 1.23 1.31 1.15.45 1.85.45c.47 0 .9-.07 1.29-.2.38-.13.72-.33 1-.6.28-.26.49-.59.64-.98l3.04.34c-.19.8-.56 1.5-1.09 2.1-.54.6-1.22 1.06-2.06 1.39-.84.36-1.8.52-2.87.52m9-.27v-13.82h3.16v2.3h.14c.25-.8.69-1.41 1.3-1.85s1.32-.65 2.11-.65c.18 0 .38.01.61.02.22.01.41.04.56.07v3c-.14-.05-.35-.09-.65-.13s-.58-.06-.86-.06c-.59 0-1.13.13-1.6.38s-.84.61-1.11 1.06-.41.97-.41 1.56v8.12zm21.03-10.17-2.97.32c-.08-.3-.23-.58-.44-.85-.21-.26-.48-.48-.83-.64s-.77-.24-1.28-.24c-.68 0-1.25.15-1.7.44-.46.29-.69.68-.68 1.14-.01.4.14.73.45.98.3.25.8.46 1.51.62l2.36.5c1.31.28 2.28.73 2.92 1.34s.96 1.41.97 2.4c-.01.87-.26 1.64-.76 2.3s-1.2 1.18-2.08 1.55c-.89.37-1.91.56-3.06.56-1.69 0-3.05-.36-4.08-1.07s-1.65-1.7-1.84-2.97l3.18-.31c.14.62.45 1.09.92 1.41q.705.48 1.83.48c.77 0 1.4-.16 1.87-.48s.71-.71.71-1.18c0-.4-.15-.72-.45-.98s-.77-.46-1.41-.59l-2.36-.49c-1.33-.28-2.31-.74-2.94-1.4-.64-.66-.95-1.49-.94-2.5-.01-.85.23-1.59.7-2.22s1.13-1.11 1.97-1.46c.84-.34 1.82-.52 2.92-.52 1.62 0 2.89.34 3.83 1.03.88.73 1.46 1.66 1.68 2.83m8.99 10.44c-1.35 0-2.52-.3-3.51-.89a5.96 5.96 0 0 1-2.3-2.49c-.54-1.07-.81-2.32-.81-3.74s.27-2.68.81-3.75 1.31-1.91 2.3-2.5 2.16-.89 3.51-.89 2.52.3 3.51.89 1.76 1.43 2.3 2.5q.81 1.605.81 3.75c0 2.145-.27 2.67-.81 3.74a5.96 5.96 0 0 1-2.3 2.49c-.99.59-2.16.89-3.51.89m.02-2.61c.73 0 1.34-.2 1.83-.61.49-.4.86-.95 1.1-1.63s.36-1.45.36-2.29c0-.85-.12-1.61-.36-2.3s-.61-1.23-1.1-1.64-1.1-.61-1.83-.61c-.75 0-1.37.2-1.87.61s-.86.95-1.11 1.64c-.24.69-.36 1.45-.36 2.3 0 .84.12 1.6.36 2.29.24.68.61 1.23 1.11 1.63.5.41 1.12.61 1.87.61m12.71-5.76v8.1h-3.26v-13.82h3.11v2.35h.16c.32-.77.83-1.39 1.52-1.84.7-.46 1.56-.68 2.6-.68.95 0 1.79.2 2.5.61q1.065.615 1.65 1.77c.39.77.59 1.71.58 2.82v8.8h-3.26v-8.29c0-.92-.24-1.65-.71-2.17-.48-.52-1.14-.78-1.97-.78-.57 0-1.08.12-1.52.37s-.79.61-1.03 1.07-.37 1.03-.37 1.69m18.36 8.37c-1.39 0-2.58-.29-3.58-.87s-1.78-1.4-2.32-2.46-.81-2.32-.81-3.77q0-2.13.81-3.75t2.28-2.52 3.45-.9c.85 0 1.66.14 2.42.41q1.14.405 2.01 1.26c.58.57 1.04 1.29 1.38 2.17s.5 1.92.5 3.13v1H401.9v-2.2h8.2c-.01-.62-.14-1.18-.4-1.67s-.63-.87-1.1-1.16c-.47-.28-1.02-.42-1.64-.42-.67 0-1.25.16-1.75.48q-.75.48-1.17 1.26c-.28.52-.42 1.09-.43 1.7v1.92c0 .8.15 1.49.44 2.06s.7 1.01 1.23 1.31 1.15.45 1.85.45c.47 0 .9-.07 1.29-.2.38-.13.72-.33 1-.6.28-.26.5-.59.64-.98l3.04.34c-.19.8-.56 1.5-1.09 2.1-.54.6-1.22 1.06-2.06 1.39-.83.36-1.79.52-2.86.52m15.09 0c-1.39 0-2.58-.29-3.58-.87s-1.78-1.4-2.32-2.46-.81-2.32-.81-3.77q0-2.13.81-3.75t2.28-2.52 3.45-.9c.85 0 1.66.14 2.42.41s1.43.69 2.02 1.26c.58.57 1.04 1.29 1.38 2.17s.5 1.92.5 3.13v1H417v-2.2h8.2c-.01-.62-.14-1.18-.4-1.67s-.63-.87-1.1-1.16c-.47-.28-1.02-.42-1.64-.42-.67 0-1.25.16-1.75.48s-.9.74-1.17 1.26c-.28.52-.42 1.09-.43 1.7v1.92c0 .8.15 1.49.44 2.06s.7 1.01 1.23 1.31 1.15.45 1.85.45c.47 0 .9-.07 1.29-.2.38-.13.72-.33 1-.6.28-.26.5-.59.64-.98l3.04.34c-.19.8-.56 1.5-1.09 2.1-.54.6-1.22 1.06-2.06 1.39-.85.36-1.8.52-2.87.52m12.28-18.69v18.42h-3.26v-18.42z" style="fill:#ff7300"/><path d="M228.02 35.79v11.23h-26.56V59.4h25.25v11.23h-25.25V93.1h-12.79V35.79zm19.21 57.31h-12.3V35.79h12.3zm48.59-6.4c-4.97 4.7-10.81 7.05-17.5 7.05-6.7 0-12.23-2.06-16.6-6.19s-6.56-9.66-6.56-16.6 2.23-12.46 6.68-16.56 9.72-6.15 15.78-6.15 11.22 1.83 15.45 5.49c4.24 3.66 6.35 8.69 6.35 15.09v6.56h-32.14c.38 2.41 1.64 4.37 3.77 5.9s4.54 2.3 7.21 2.3c4.32 0 7.87-1.45 10.66-4.34zm-11.81-26.15c-1.69-1.42-3.76-2.13-6.19-2.13s-4.66.74-6.68 2.21c-2.02 1.48-3.2 3.47-3.53 5.98h19.35c-.27-2.62-1.25-4.64-2.95-6.06m31.85-11.56 7.54 11.81 7.79-11.81h14.43l-15.17 21.56L346.2 93.1h-14.68l-8.61-12.13-8.36 12.13h-14.18l15.41-22.47-14.59-21.64zm63.98 23.77V48.99h12.38V93.1h-12.38v-5.82q-4.59 6.48-11.85 6.48c-7.26 0-8.9-1.52-12.18-4.55s-4.92-7.53-4.92-13.49V48.99h12.38v24.02c0 6.78 2.49 10.17 7.46 10.17 2.46 0 4.59-.89 6.39-2.66 1.82-1.78 2.72-4.37 2.72-7.76m45.77-12.95c-3.66 0-6.39 1.3-8.2 3.89-1.8 2.6-2.71 6.03-2.71 10.29v19.1h-12.3v-44.1h12.3v5.82c1.58-1.8 3.57-3.33 5.94-4.59 2.38-1.26 4.8-1.91 7.26-1.97l.08 11.56zm9.24-16.44c-1.39-1.39-2.09-3.1-2.09-5.12s.7-3.73 2.09-5.12 3.1-2.09 5.12-2.09 3.73.7 5.12 2.09 2.09 3.1 2.09 5.12-.7 3.73-2.09 5.12-3.1 2.09-5.12 2.09c-2.01 0-3.72-.7-5.12-2.09m11.28 49.73h-12.3V48.99h12.3zm24.26-35.26V77.6c0 1.7.44 3.02 1.31 3.98s1.91 1.43 3.12 1.43c2.3 0 4.23-1.04 5.82-3.12l4.59 8.61q-5.745 5.25-12.09 5.25c-4.24 0-7.82-1.39-10.74-4.18s-4.39-6.59-4.39-11.4V57.84h-5.17v-8.86h5.17v-13.2h12.38v13.2h10.66v8.86zm28.31 52.64c-4.32 0-8.39-1.75-12.22-5.25l5.58-9.1q3.12 3.03 6.39 3.03c1.15 0 2.13-.56 2.95-1.68q1.23-1.68 1.23-3.57c0-1.26-5.69-16.23-17.05-44.93h13.12l10.74 27.47 10.74-27.47h13.12l-20.5 51.98c-1.2 3.01-3.07 5.34-5.62 7.01-2.53 1.67-5.36 2.51-8.48 2.51" class="st4"/><circle cx="88.63" cy="99.18" r="8.52" class="st4"/><circle cx="71.23" cy="81.78" r="8.52" class="st4"/><circle cx="88.63" cy="64.38" r="8.52" class="st4"/><circle cx="106.03" cy="81.78" r="8.52" class="st4"/><circle cx="70.21" cy="117.59" r="6.91" class="st5"/><circle cx="51.8" cy="136" r="5.53" class="st6"/><circle cx="33.39" cy="154.42" r="4.15" class="st7"/><circle cx="52.81" cy="100.19" r="6.91" class="st5"/><circle cx="34.4" cy="118.6" r="5.53" class="st6"/><circle cx="15.99" cy="137.02" r="4.15" class="st7"/><circle cx="107.05" cy="45.96" r="6.91" class="st5"/><circle cx="125.46" cy="27.55" r="5.53" class="st6"/><circle cx="107.05" cy="117.59" r="6.91" class="st5"/><circle cx="125.46" cy="136" r="5.53" class="st6"/><circle cx="52.81" cy="63.36" r="6.91" class="st5"/><circle cx="34.4" cy="44.95" r="5.53" class="st6"/><circle cx="15.99" cy="26.54" r="4.15" class="st7"/><circle cx="124.45" cy="100.2" r="6.91" class="st5"/><circle cx="142.86" cy="118.61" r="5.53" class="st6"/><circle cx="161.27" cy="137.02" r="4.15" class="st7"/><circle cx="70.21" cy="45.96" r="6.91" class="st5"/><circle cx="51.8" cy="27.55" r="5.53" class="st6"/><circle cx="124.45" cy="63.36" r="6.91" class="st5"/><circle cx="142.86" cy="44.95" r="5.53" class="st6"/><circle cx="161.27" cy="26.54" r="4.15" class="st7"/><circle cx="178.66" cy="9.15" r="4.15" class="st7"/></svg>